# xmcd
#
# Track frame offsets: 
#        150
#        18995
#        41862
#        56500
#        71035
#        90445
#        109447
#        129390
#        141850
#        159342
#        173967
#        188770
#
# Disc length: 2832 seconds
#
# Revision: 3
# Processed by: cddbd v1.5.1PL0 Copyright (c) Steve Scherf et al.
# Submitted via: ExactAudioCopy v0.95a5
#
DISCID=a40b0e0c
DTITLE=Cary Hudson - Cool Breeze
DYEAR=2004
DGENRE=Rock
TTITLE0=Things Ain't What They Used To Be
TTITLE1=What The Old Man Told Me
TTITLE2=Cool Breeze
TTITLE3=8 Ball Blues
TTITLE4=Jellyroll
TTITLE5=Little Darlin'
TTITLE6=Bay Street Blues
TTITLE7=Ain't No Tellin'
TTITLE8=Free State Of Jones
TTITLE9=Don' Hasten Away
TTITLE10=Haunted House Blues
TTITLE11=Some Things Never Change
EXTD=
EXTT0=
EXTT1=
EXTT2=
EXTT3=
EXTT4=
EXTT5=
EXTT6=
EXTT7=
EXTT8=
EXTT9=
EXTT10=
EXTT11=
PLAYORDER=
